# xmcd
#
# Track frame offsets:
#	182
#	25832
#	44345
#	64452
#	71302
#	100787
#	132247
#	151847
#	171500
#	180705
#	197427
#	221795
#	248942
#	271270
#	297557
#	324887
#
# Disc length: 4445 seconds
#
# Revision: 9
# Processed by: cddbd v1.5.2PL0 Copyright (c) Steve Scherf et al.
# Submitted via: EasyCDDAExtractor 5.0.6
#
DISCID=ed115b10
DTITLE=Modest Mouse - This Is A Long Drive For Someone With Nothing To Think A
DTITLE=bout
DYEAR=1996
DGENRE=Indie Rock
TTITLE0=Dramamine
TTITLE1=Breakthrough
TTITLE2=Custom Concern
TTITLE3=Might
TTITLE4=Lounge
TTITLE5=Beach Side Property
TTITLE6=She Ionizes And Atomizes
TTITLE7=Head South
TTITLE8=Dog Paddle
TTITLE9=Novocain Stain
TTITLE10=Tundra_Desert
TTITLE11=Ohio
TTITLE12=Exit Does Not Exist
TTITLE13=Talking Shit About A Pretty Sunset
TTITLE14=Make Everyone Happy_Mechanical Birds
TTITLE15=Space Travel Is Boring
EXTD=YEAR: 1996
EXTT0=
EXTT1=
EXTT2=
EXTT3=
EXTT4=
EXTT5=
EXTT6=
EXTT7=
EXTT8=
EXTT9=
EXTT10=
EXTT11=
EXTT12=
EXTT13=
EXTT14=
EXTT15=
PLAYORDER=
